<svg xmlns="http://www.w3.org/2000/svg" viewBox="0 0 600 400" class="function-graph">
<style>
  .function-graph { background: #fafafa; border-radius: 8px; max-width: 100%; }
  @media (prefers-color-scheme: dark) {
    .function-graph { background: #1e1e2e; }
    .fg-grid { stroke: #333; }
    .fg-axis { stroke: #888; }
    .fg-label { fill: #aaa; }
    .fg-title { fill: #ddd; }
    .fg-curve1 { stroke: #7cacf8; }
    .fg-curve2 { stroke: #f87171; }
    .fg-curve3 { stroke: #4ade80; }
    .fg-curve4 { stroke: #facc15; }
    .fg-dash { stroke-dasharray: 6 4; }
  }
  .fg-grid { stroke: #e0e0e0; stroke-width: 0.5; }
  .fg-axis { stroke: #666; stroke-width: 1.5; }
  .fg-label { font-family: 'JetBrains Mono', monospace; font-size: 11px; fill: #666; }
  .fg-title { font-family: system-ui, sans-serif; font-size: 14px; font-weight: 600; fill: #333; text-anchor: middle; }
  .fg-curve1 { fill: none; stroke: #3b82f6; stroke-width: 2.5; }
  .fg-curve2 { fill: none; stroke: #ef4444; stroke-width: 2.5; }
  .fg-curve3 { fill: none; stroke: #22c55e; stroke-width: 2.5; }
  .fg-curve4 { fill: none; stroke: #eab308; stroke-width: 2.5; }
  .fg-dash { stroke-dasharray: 6 4; stroke-width: 1.5; }
</style>
<text x="300" y="24" class="fg-title">一次函数 y = kx + b</text>
<line x1="50" y1="50" x2="50" y2="350" class="fg-grid"/><text x="50" y="216" class="fg-label" text-anchor="middle">-5</text><line x1="100" y1="50" x2="100" y2="350" class="fg-grid"/><text x="100" y="216" class="fg-label" text-anchor="middle">-4</text><line x1="150" y1="50" x2="150" y2="350" class="fg-grid"/><text x="150" y="216" class="fg-label" text-anchor="middle">-3</text><line x1="200" y1="50" x2="200" y2="350" class="fg-grid"/><text x="200" y="216" class="fg-label" text-anchor="middle">-2</text><line x1="250" y1="50" x2="250" y2="350" class="fg-grid"/><text x="250" y="216" class="fg-label" text-anchor="middle">-1</text><line x1="300" y1="50" x2="300" y2="350" class="fg-grid"/><line x1="350" y1="50" x2="350" y2="350" class="fg-grid"/><text x="350" y="216" class="fg-label" text-anchor="middle">1</text><line x1="400" y1="50" x2="400" y2="350" class="fg-grid"/><text x="400" y="216" class="fg-label" text-anchor="middle">2</text><line x1="450" y1="50" x2="450" y2="350" class="fg-grid"/><text x="450" y="216" class="fg-label" text-anchor="middle">3</text><line x1="500" y1="50" x2="500" y2="350" class="fg-grid"/><text x="500" y="216" class="fg-label" text-anchor="middle">4</text><line x1="550" y1="50" x2="550" y2="350" class="fg-grid"/><text x="550" y="216" class="fg-label" text-anchor="middle">5</text><line x1="50" y1="350" x2="550" y2="350" class="fg-grid"/><text x="292" y="354" class="fg-label" text-anchor="end">-5</text><line x1="50" y1="320" x2="550" y2="320" class="fg-grid"/><text x="292" y="324" class="fg-label" text-anchor="end">-4</text><line x1="50" y1="290" x2="550" y2="290" class="fg-grid"/><text x="292" y="294" class="fg-label" text-anchor="end">-3</text><line x1="50" y1="260" x2="550" y2="260" class="fg-grid"/><text x="292" y="264" class="fg-label" text-anchor="end">-2</text><line x1="50" y1="230" x2="550" y2="230" class="fg-grid"/><text x="292" y="234" class="fg-label" text-anchor="end">-1</text><line x1="50" y1="200" x2="550" y2="200" class="fg-grid"/><line x1="50" y1="170" x2="550" y2="170" class="fg-grid"/><text x="292" y="174" class="fg-label" text-anchor="end">1</text><line x1="50" y1="140" x2="550" y2="140" class="fg-grid"/><text x="292" y="144" class="fg-label" text-anchor="end">2</text><line x1="50" y1="110" x2="550" y2="110" class="fg-grid"/><text x="292" y="114" class="fg-label" text-anchor="end">3</text><line x1="50" y1="80" x2="550" y2="80" class="fg-grid"/><text x="292" y="84" class="fg-label" text-anchor="end">4</text><line x1="50" y1="50" x2="550" y2="50" class="fg-grid"/><text x="292" y="54" class="fg-label" text-anchor="end">5</text><line x1="300" y1="50" x2="300" y2="350" class="fg-axis"/><line x1="50" y1="200" x2="550" y2="200" class="fg-axis"/><text x="292" y="216" class="fg-label" text-anchor="end">0</text><path d="M50.0,470.0 L52.5,467.0 L55.0,464.0 L57.5,461.0 L60.0,458.0 L62.5,455.0 L65.0,452.0 L67.5,449.0 L70.0,446.0 L72.5,443.0 L75.0,440.0 L77.5,437.0 L80.0,434.0 L82.5,431.0 L85.0,428.0 L87.5,425.0 L90.0,422.0 L92.5,419.0 L95.0,416.0 L97.5,413.0 L100.0,410.0 L102.5,407.0 L105.0,404.0 L107.5,401.0 L110.0,398.0 L112.5,395.0 L115.0,392.0 L117.5,389.0 L120.0,386.0 L122.5,383.0 L125.0,380.0 L127.5,377.0 L130.0,374.0 L132.5,371.0 L135.0,368.0 L137.5,365.0 L140.0,362.0 L142.5,359.0 L145.0,356.0 L147.5,353.0 L150.0,350.0 L152.5,347.0 L155.0,344.0 L157.5,341.0 L160.0,338.0 L162.5,335.0 L165.0,332.0 L167.5,329.0 L170.0,326.0 L172.5,323.0 L175.0,320.0 L177.5,317.0 L180.0,314.0 L182.5,311.0 L185.0,308.0 L187.5,305.0 L190.0,302.0 L192.5,299.0 L195.0,296.0 L197.5,293.0 L200.0,290.0 L202.5,287.0 L205.0,284.0 L207.5,281.0 L210.0,278.0 L212.5,275.0 L215.0,272.0 L217.5,269.0 L220.0,266.0 L222.5,263.0 L225.0,260.0 L227.5,257.0 L230.0,254.0 L232.5,251.0 L235.0,248.0 L237.5,245.0 L240.0,242.0 L242.5,239.0 L245.0,236.0 L247.5,233.0 L250.0,230.0 L252.5,227.0 L255.0,224.0 L257.5,221.0 L260.0,218.0 L262.5,215.0 L265.0,212.0 L267.5,209.0 L270.0,206.0 L272.5,203.0 L275.0,200.0 L277.5,197.0 L280.0,194.0 L282.5,191.0 L285.0,188.0 L287.5,185.0 L290.0,182.0 L292.5,179.0 L295.0,176.0 L297.5,173.0 L300.0,170.0 L302.5,167.0 L305.0,164.0 L307.5,161.0 L310.0,158.0 L312.5,155.0 L315.0,152.0 L317.5,149.0 L320.0,146.0 L322.5,143.0 L325.0,140.0 L327.5,137.0 L330.0,134.0 L332.5,131.0 L335.0,128.0 L337.5,125.0 L340.0,122.0 L342.5,119.0 L345.0,116.0 L347.5,113.0 L350.0,110.0 L352.5,107.0 L355.0,104.0 L357.5,101.0 L360.0,98.0 L362.5,95.0 L365.0,92.0 L367.5,89.0 L370.0,86.0 L372.5,83.0 L375.0,80.0 L377.5,77.0 L380.0,74.0 L382.5,71.0 L385.0,68.0 L387.5,65.0 L390.0,62.0 L392.5,59.0 L395.0,56.0 L397.5,53.0 L400.0,50.0 L402.5,47.0 L405.0,44.0 L407.5,41.0 L410.0,38.0 L412.5,35.0 L415.0,32.0 L417.5,29.0 L420.0,26.0 L422.5,23.0 L425.0,20.0 L427.5,17.0 L430.0,14.0 L432.5,11.0 L435.0,8.0 L437.5,5.0 L440.0,2.0 L442.5,-1.0 L445.0,-4.0 L447.5,-7.0 L450.0,-10.0 L452.5,-13.0 L455.0,-16.0 L457.5,-19.0 L460.0,-22.0 L462.5,-25.0 L465.0,-28.0 L467.5,-31.0 L470.0,-34.0 L472.5,-37.0 L475.0,-40.0 L477.5,-43.0 L480.0,-46.0 L482.5,-49.0 L485.0,-52.0 L487.5,-55.0 L490.0,-58.0 L492.5,-61.0 L495.0,-64.0 L497.5,-67.0 L500.0,-70.0 L502.5,-73.0 L505.0,-76.0 L507.5,-79.0 L510.0,-82.0 L512.5,-85.0 L515.0,-88.0 L517.5,-91.0 L520.0,-94.0 L522.5,-97.0 L525.0,-100.0 " class="fg-curve1"/><path d="M50.0,20.0 L52.5,21.5 L55.0,23.0 L57.5,24.5 L60.0,26.0 L62.5,27.5 L65.0,29.0 L67.5,30.5 L70.0,32.0 L72.5,33.5 L75.0,35.0 L77.5,36.5 L80.0,38.0 L82.5,39.5 L85.0,41.0 L87.5,42.5 L90.0,44.0 L92.5,45.5 L95.0,47.0 L97.5,48.5 L100.0,50.0 L102.5,51.5 L105.0,53.0 L107.5,54.5 L110.0,56.0 L112.5,57.5 L115.0,59.0 L117.5,60.5 L120.0,62.0 L122.5,63.5 L125.0,65.0 L127.5,66.5 L130.0,68.0 L132.5,69.5 L135.0,71.0 L137.5,72.5 L140.0,74.0 L142.5,75.5 L145.0,77.0 L147.5,78.5 L150.0,80.0 L152.5,81.5 L155.0,83.0 L157.5,84.5 L160.0,86.0 L162.5,87.5 L165.0,89.0 L167.5,90.5 L170.0,92.0 L172.5,93.5 L175.0,95.0 L177.5,96.5 L180.0,98.0 L182.5,99.5 L185.0,101.0 L187.5,102.5 L190.0,104.0 L192.5,105.5 L195.0,107.0 L197.5,108.5 L200.0,110.0 L202.5,111.5 L205.0,113.0 L207.5,114.5 L210.0,116.0 L212.5,117.5 L215.0,119.0 L217.5,120.5 L220.0,122.0 L222.5,123.5 L225.0,125.0 L227.5,126.5 L230.0,128.0 L232.5,129.5 L235.0,131.0 L237.5,132.5 L240.0,134.0 L242.5,135.5 L245.0,137.0 L247.5,138.5 L250.0,140.0 L252.5,141.5 L255.0,143.0 L257.5,144.5 L260.0,146.0 L262.5,147.5 L265.0,149.0 L267.5,150.5 L270.0,152.0 L272.5,153.5 L275.0,155.0 L277.5,156.5 L280.0,158.0 L282.5,159.5 L285.0,161.0 L287.5,162.5 L290.0,164.0 L292.5,165.5 L295.0,167.0 L297.5,168.5 L300.0,170.0 L302.5,171.5 L305.0,173.0 L307.5,174.5 L310.0,176.0 L312.5,177.5 L315.0,179.0 L317.5,180.5 L320.0,182.0 L322.5,183.5 L325.0,185.0 L327.5,186.5 L330.0,188.0 L332.5,189.5 L335.0,191.0 L337.5,192.5 L340.0,194.0 L342.5,195.5 L345.0,197.0 L347.5,198.5 L350.0,200.0 L352.5,201.5 L355.0,203.0 L357.5,204.5 L360.0,206.0 L362.5,207.5 L365.0,209.0 L367.5,210.5 L370.0,212.0 L372.5,213.5 L375.0,215.0 L377.5,216.5 L380.0,218.0 L382.5,219.5 L385.0,221.0 L387.5,222.5 L390.0,224.0 L392.5,225.5 L395.0,227.0 L397.5,228.5 L400.0,230.0 L402.5,231.5 L405.0,233.0 L407.5,234.5 L410.0,236.0 L412.5,237.5 L415.0,239.0 L417.5,240.5 L420.0,242.0 L422.5,243.5 L425.0,245.0 L427.5,246.5 L430.0,248.0 L432.5,249.5 L435.0,251.0 L437.5,252.5 L440.0,254.0 L442.5,255.5 L445.0,257.0 L447.5,258.5 L450.0,260.0 L452.5,261.5 L455.0,263.0 L457.5,264.5 L460.0,266.0 L462.5,267.5 L465.0,269.0 L467.5,270.5 L470.0,272.0 L472.5,273.5 L475.0,275.0 L477.5,276.5 L480.0,278.0 L482.5,279.5 L485.0,281.0 L487.5,282.5 L490.0,284.0 L492.5,285.5 L495.0,287.0 L497.5,288.5 L500.0,290.0 L502.5,291.5 L505.0,293.0 L507.5,294.5 L510.0,296.0 L512.5,297.5 L515.0,299.0 L517.5,300.5 L520.0,302.0 L522.5,303.5 L525.0,305.0 L527.5,306.5 L530.0,308.0 L532.5,309.5 L535.0,311.0 L537.5,312.5 L540.0,314.0 L542.5,315.5 L545.0,317.0 L547.5,318.5 L550.0,320.0 " class="fg-curve2"/><path d="M50.0,260.0 L52.5,260.0 L55.0,260.0 L57.5,260.0 L60.0,260.0 L62.5,260.0 L65.0,260.0 L67.5,260.0 L70.0,260.0 L72.5,260.0 L75.0,260.0 L77.5,260.0 L80.0,260.0 L82.5,260.0 L85.0,260.0 L87.5,260.0 L90.0,260.0 L92.5,260.0 L95.0,260.0 L97.5,260.0 L100.0,260.0 L102.5,260.0 L105.0,260.0 L107.5,260.0 L110.0,260.0 L112.5,260.0 L115.0,260.0 L117.5,260.0 L120.0,260.0 L122.5,260.0 L125.0,260.0 L127.5,260.0 L130.0,260.0 L132.5,260.0 L135.0,260.0 L137.5,260.0 L140.0,260.0 L142.5,260.0 L145.0,260.0 L147.5,260.0 L150.0,260.0 L152.5,260.0 L155.0,260.0 L157.5,260.0 L160.0,260.0 L162.5,260.0 L165.0,260.0 L167.5,260.0 L170.0,260.0 L172.5,260.0 L175.0,260.0 L177.5,260.0 L180.0,260.0 L182.5,260.0 L185.0,260.0 L187.5,260.0 L190.0,260.0 L192.5,260.0 L195.0,260.0 L197.5,260.0 L200.0,260.0 L202.5,260.0 L205.0,260.0 L207.5,260.0 L210.0,260.0 L212.5,260.0 L215.0,260.0 L217.5,260.0 L220.0,260.0 L222.5,260.0 L225.0,260.0 L227.5,260.0 L230.0,260.0 L232.5,260.0 L235.0,260.0 L237.5,260.0 L240.0,260.0 L242.5,260.0 L245.0,260.0 L247.5,260.0 L250.0,260.0 L252.5,260.0 L255.0,260.0 L257.5,260.0 L260.0,260.0 L262.5,260.0 L265.0,260.0 L267.5,260.0 L270.0,260.0 L272.5,260.0 L275.0,260.0 L277.5,260.0 L280.0,260.0 L282.5,260.0 L285.0,260.0 L287.5,260.0 L290.0,260.0 L292.5,260.0 L295.0,260.0 L297.5,260.0 L300.0,260.0 L302.5,260.0 L305.0,260.0 L307.5,260.0 L310.0,260.0 L312.5,260.0 L315.0,260.0 L317.5,260.0 L320.0,260.0 L322.5,260.0 L325.0,260.0 L327.5,260.0 L330.0,260.0 L332.5,260.0 L335.0,260.0 L337.5,260.0 L340.0,260.0 L342.5,260.0 L345.0,260.0 L347.5,260.0 L350.0,260.0 L352.5,260.0 L355.0,260.0 L357.5,260.0 L360.0,260.0 L362.5,260.0 L365.0,260.0 L367.5,260.0 L370.0,260.0 L372.5,260.0 L375.0,260.0 L377.5,260.0 L380.0,260.0 L382.5,260.0 L385.0,260.0 L387.5,260.0 L390.0,260.0 L392.5,260.0 L395.0,260.0 L397.5,260.0 L400.0,260.0 L402.5,260.0 L405.0,260.0 L407.5,260.0 L410.0,260.0 L412.5,260.0 L415.0,260.0 L417.5,260.0 L420.0,260.0 L422.5,260.0 L425.0,260.0 L427.5,260.0 L430.0,260.0 L432.5,260.0 L435.0,260.0 L437.5,260.0 L440.0,260.0 L442.5,260.0 L445.0,260.0 L447.5,260.0 L450.0,260.0 L452.5,260.0 L455.0,260.0 L457.5,260.0 L460.0,260.0 L462.5,260.0 L465.0,260.0 L467.5,260.0 L470.0,260.0 L472.5,260.0 L475.0,260.0 L477.5,260.0 L480.0,260.0 L482.5,260.0 L485.0,260.0 L487.5,260.0 L490.0,260.0 L492.5,260.0 L495.0,260.0 L497.5,260.0 L500.0,260.0 L502.5,260.0 L505.0,260.0 L507.5,260.0 L510.0,260.0 L512.5,260.0 L515.0,260.0 L517.5,260.0 L520.0,260.0 L522.5,260.0 L525.0,260.0 L527.5,260.0 L530.0,260.0 L532.5,260.0 L535.0,260.0 L537.5,260.0 L540.0,260.0 L542.5,260.0 L545.0,260.0 L547.5,260.0 L550.0,260.0 " class="fg-curve3 fg-dash"/><text x="475" y="-40" class="fg-label" text-anchor="start" font-style="italic">y=2x+1</text><text x="475" y="275" class="fg-label" text-anchor="start" font-style="italic">y=-x+1</text><text x="450" y="260" class="fg-label" text-anchor="start" font-style="italic">y=-2 (k=0)</text>
</svg>